<svg xmlns="http://www.w3.org/2000/svg" viewBox="0 23.961320877075195 191.0288848876953 39.31867980957031" data-asc="1.220703125" width="191.0288848876953" height="39.31867980957031"><defs/><g fill="#000000"><g transform="translate(0, 0)"><path d="M27.59 25.29L27.83 25.44Q27.56 26.03 27.51 26.32Q27.47 26.61 27.39 26.81Q27.34 26.93 27.32 27.01Q27.29 27.10 27.27 27.15Q27.25 27.20 27.22 27.27Q27.20 27.34 27.15 27.44Q27.00 27.69 26.86 27.69Q26.71 27.69 26.46 27.93Q26.32 28.13 26.22 28.22L25.98 28.47Q25.81 28.76 25.78 28.91Q25.76 29.08 25.44 29.20Q25.24 29.25 25.12 29.22Q24.95 29.20 24.85 29.30Q24.32 29.49 23.97 29.54Q23.63 29.59 23.24 29.64Q22.68 29.88 22.46 29.88Q22.31 29.88 22.07 29.93Q21.88 29.98 21.66 30.05Q21.44 30.13 21.14 30.22Q20.87 31.08 20.46 31.64Q20.02 32.23 19.73 33.06Q18.85 34.47 18.19 35.69Q17.53 36.91 16.99 38.04Q16.75 38.28 16.58 38.62Q16.41 38.96 16.21 39.36Q15.92 39.89 15.92 39.89Q15.84 39.97 15.82 40.04Q15.72 40.23 15.63 40.45Q15.53 40.67 15.43 40.92Q15.14 41.31 15.01 41.58Q14.89 41.85 14.79 42.09Q14.65 42.33 14.50 42.58Q14.36 42.82 14.21 43.12Q13.96 43.70 13.76 44.21Q13.55 44.73 13.35 45.14Q13.01 45.92 12.74 46.97Q12.65 47.27 12.52 47.75Q12.43 48.14 12.26 48.44Q11.79 49.63 11.32 50.85Q10.84 52.08 10.35 53.32Q9.86 54.57 9.40 55.82Q8.94 57.08 8.50 58.35Q9.28 58.35 9.77 58.08Q10.25 57.81 11.08 57.81Q11.62 58.54 11.18 59.28Q10.79 59.74 10.74 60.01Q10.72 60.25 10.60 60.45Q10.33 60.77 10.23 60.94Q10.16 61.08 10.01 61.23Q9.59 61.62 8.50 61.77Q7.89 61.89 7.59 62.04Q7.42 62.13 7.21 62.19Q7.01 62.26 6.79 62.30Q6.49 62.35 6.25 62.40Q6.01 62.45 5.81 62.50Q5.57 62.50 5.44 62.48Q5.27 62.45 5.13 62.55Q4.30 62.55 3.74 62.65Q3.17 62.74 2.64 62.89Q2.17 63.01 1.88 63.13Q1.51 63.28 1.07 63.28Q0.93 63.28 0.78 63.21Q0.63 63.13 0.44 63.13Q0.29 62.99 0.15 62.77Q0 62.55 0 62.30Q0 62.06 0.07 61.84Q0.15 61.65 0.10 61.38Q0.10 60.82 0.51 60.47Q0.95 60.11 1.17 59.77Q2.00 59.64 2.47 59.42Q2.73 59.30 3.08 59.22Q3.42 59.13 3.81 59.08Q4.15 58.08 4.53 57.06Q4.91 56.03 5.32 54.98Q6.18 52.88 6.93 50.88Q7.10 50.44 7.25 50.12Q7.40 49.80 7.57 49.37Q8.06 48.05 8.59 46.88Q8.89 46.56 9.03 46.04Q9.11 45.87 9.16 45.63Q9.20 45.39 9.28 45.21Q9.42 44.90 9.72 44.43L10.21 43.65Q10.38 43.41 10.56 43.18Q10.74 42.94 10.91 42.70Q11.11 42.46 11.28 42.22Q11.45 41.99 11.62 41.75Q11.79 41.26 11.99 40.80Q12.18 40.33 12.38 39.87L13.18 38.04Q13.28 37.40 13.60 36.65Q13.92 35.89 14.16 35.35Q14.31 35.08 14.43 34.80Q14.55 34.52 14.65 34.20Q14.75 33.89 14.88 33.61Q15.01 33.33 15.19 33.06Q15.23 32.89 15.30 32.73Q15.36 32.57 15.43 32.45Q15.50 32.32 15.56 32.17Q15.63 32.01 15.67 31.84Q15.89 31.47 15.99 31.18Q16.04 30.98 16.11 30.80Q16.19 30.62 16.26 30.42Q16.14 30.49 15.89 30.54L15.53 30.62Q15.36 30.66 15.19 30.76Q15.01 30.86 14.75 30.91Q13.96 31.03 13.38 30.91Q12.72 30.79 12.55 30.03Q12.52 29.64 12.72 29.61Q12.92 29.59 13.04 29.25Q12.99 28.13 13.33 27.56Q13.67 27.00 14.21 26.90Q14.43 26.81 14.65 26.81Q14.84 26.81 15.04 26.61Q15.45 26.49 16.04 26.44Q16.31 26.42 16.56 26.39Q16.82 26.37 17.09 26.32Q17.63 26.22 18.12 26.15Q18.60 26.07 19.04 26.07L20.02 25.81Q20.46 25.68 21.09 25.73Q21.44 25.73 21.73 25.81Q22.02 25.88 22.36 25.88Q22.53 25.88 22.69 25.89Q22.85 25.90 23.02 25.93Q23.39 25.98 23.73 25.88Q24.02 25.85 24.29 25.68Q24.56 25.54 24.85 25.63Q25.34 25.54 25.85 25.44Q26.37 25.34 26.90 25.34Q27.44 25.37 27.44 25.32Q27.44 25.24 27.59 25.29ZM49.80 47.46L49.76 47.85Q49.80 48.02 49.66 48.44Q49.41 48.73 49.37 49.07Q49.27 49.27 49.19 49.41Q49.12 49.56 49.07 49.80Q48.97 50.10 49.00 50.49Q49.02 50.68 49.01 50.87Q49.00 51.05 48.97 51.22Q48.88 51.76 48.83 52.27Q48.78 52.78 48.73 53.32Q48.73 53.86 48.63 54.54Q48.54 55.22 48.44 55.76Q48.66 56.15 48.68 56.49Q48.71 56.86 49.02 57.13Q50 56.98 50.59 56.67Q51.17 56.35 51.71 55.76Q52.10 55.59 52.32 55.42Q52.51 55.25 52.88 55.03L53.27 54.64Q53.86 54.32 53.93 54.25Q53.98 54.20 54.06 54.15Q54.15 54.10 54.25 54.05Q55.08 53.52 55.52 52.93Q55.88 52.64 56.13 52.32Q56.32 52.05 56.88 51.81Q57.20 51.42 57.59 51.15Q57.98 50.88 58.30 50.49Q58.57 50.49 58.69 50.59Q58.76 50.63 58.85 50.68Q58.94 50.73 59.03 50.78Q59.18 51.17 59.08 51.59Q58.98 52.00 58.74 52.34Q58.50 52.66 58.50 52.73Q58.50 52.78 58.45 52.83Q58.30 53.00 58.08 53.20Q57.86 53.37 57.71 53.56Q57.47 54.00 57.32 54.00Q57.18 54.00 57.08 54.10Q56.64 54.37 56.47 54.49Q56.27 54.66 55.91 54.88Q55.40 55.15 55.27 55.27Q55.15 55.40 55.08 55.42Q54.49 56.08 53.93 56.52Q53.42 56.91 52.83 57.62Q52.64 57.76 52.44 57.91Q52.25 58.06 52.10 58.30Q51.66 58.59 51.39 58.89Q51.12 59.18 50.78 59.57Q50.49 59.72 50.15 59.99Q49.73 60.30 49.41 60.45Q49.29 60.52 49.00 60.67Q48.75 60.79 48.54 60.79Q47.97 60.89 47.46 60.69Q47.00 60.52 46.53 60.40Q46.34 60.11 46.04 59.91Q45.61 59.38 45.41 58.64Q45.21 57.91 45.02 57.08Q44.58 57.37 44.29 57.71Q43.99 58.08 43.41 58.35Q42.92 58.81 42.41 59.27Q41.89 59.72 41.33 60.13Q40.80 60.55 40.23 61.00Q39.67 61.45 39.11 61.91Q38.72 62.30 38.57 62.21Q38.13 62.74 37.01 62.55Q36.62 62.35 36.13 62.21Q35.79 62.11 35.35 61.91Q34.52 61.77 33.96 61.18Q33.40 60.60 33.01 59.81Q32.86 59.40 32.79 59.08Q32.76 58.91 32.71 58.72Q32.67 58.52 32.62 58.30Q32.59 57.89 32.47 57.64Q32.37 57.37 32.47 57.13Q32.37 57.01 32.42 56.81Q32.47 56.57 32.47 56.45Q32.42 55.76 32.59 54.98Q32.76 54.20 33.06 53.56Q33.20 53.32 33.45 53.08Q33.57 52.93 33.59 52.78Q33.62 52.66 33.74 52.54Q33.86 52.39 34.03 52.25Q34.28 52.05 34.38 51.95Q34.50 51.78 34.63 51.62Q34.77 51.46 34.94 51.34Q35.11 51.22 35.25 51.07Q35.40 50.93 35.55 50.78Q35.72 50.61 35.82 50.44Q35.94 50.24 36.18 50.15Q36.38 49.80 36.62 49.58Q36.87 49.37 37.16 49.12Q37.99 48.12 39.21 47.41Q40.45 46.70 41.41 45.85Q41.75 45.70 41.99 45.51Q42.24 45.31 42.48 45.12Q43.09 44.58 43.80 44.78L45.07 45.12Q45.56 45.56 46.02 46.00Q46.48 46.44 46.83 46.97Q47.00 46.95 47.19 46.94Q47.39 46.92 47.61 46.95Q48.05 47.00 48.54 46.88Q48.68 46.88 48.83 46.80Q48.97 46.73 49.07 46.73Q49.80 46.97 49.80 47.46M43.36 48.19Q42.04 48.83 40.97 49.68Q39.89 50.54 38.92 51.51Q38.79 51.64 38.66 51.75Q38.53 51.86 38.40 51.98Q38.28 52.08 38.16 52.20Q38.04 52.32 37.94 52.44Q37.74 52.69 37.57 53.03Q37.40 53.37 37.26 53.66Q37.21 53.76 37.16 53.85Q37.11 53.93 37.06 53.98Q37.01 54.03 36.96 54.10Q36.91 54.17 36.87 54.25Q36.77 54.49 36.79 54.74Q36.82 54.91 36.82 55.27L36.82 55.76Q36.82 55.91 36.87 56.25Q37.01 56.79 37.01 57.32Q37.01 57.71 37.08 58.28Q37.16 58.84 37.45 59.03Q37.77 59.23 38.06 59.13Q38.40 59.01 38.62 58.98Q40.33 57.67 41.85 56.23Q43.36 54.79 44.53 52.98Q44.43 51.78 44.51 50.51Q44.58 49.32 44.29 48.29Q44.09 48.17 43.82 48.22Q43.63 48.24 43.36 48.19ZM58.45 54.83Q58.69 54.81 58.84 54.61Q58.94 54.49 59.18 54.30Q59.25 54.25 59.33 54.20Q59.40 54.15 59.50 54.10Q59.59 54.05 59.67 54.00Q59.74 53.96 59.81 53.91Q60.45 53.44 60.91 52.93Q61.38 52.44 61.96 52.00Q62.28 51.64 62.61 51.31Q62.94 50.98 63.26 50.66Q63.87 50.07 64.45 49.27Q65.23 48.68 65.92 48.00Q66.38 47.71 66.67 47.44Q66.97 47.17 67.48 46.88Q67.72 46.58 68.02 46.24Q68.31 45.90 68.70 45.65Q69.12 45.24 69.56 45.07Q70.00 44.90 70.41 44.48Q71.14 44.09 71.73 44.36Q72.31 44.63 72.66 45.02Q72.83 45.46 73.24 45.95Q73.29 46.02 73.34 46.09Q73.39 46.17 73.44 46.22Q73.54 46.31 73.54 46.58Q73.54 47.14 73.39 47.71Q73.32 47.97 73.25 48.24Q73.19 48.51 73.14 48.78Q73.10 49.12 73.07 49.45Q73.05 49.78 73.02 50.12Q73.00 50.76 72.80 51.46Q73.07 51.86 73.27 52.29Q73.46 52.76 73.73 53.03Q73.90 53.00 74.17 52.64Q74.29 52.54 74.43 52.45Q74.56 52.37 74.73 52.27Q75.07 52.08 75.29 51.86Q75.49 51.66 75.66 51.49Q75.83 51.32 76.00 51.17Q76.37 50.85 76.66 50.49Q76.83 50.32 77.00 50.16Q77.17 50 77.34 49.85Q77.51 49.71 77.70 49.55Q77.88 49.39 78.08 49.22Q78.27 49.02 78.44 48.82Q78.61 48.61 78.78 48.41Q78.96 48.22 79.13 48.01Q79.30 47.80 79.49 47.61Q79.66 47.39 79.81 47.34Q79.98 47.27 80.08 47.02Q80.44 46.85 80.74 46.48Q81.01 46.14 81.49 46.00Q81.98 45.95 82.13 46.00Q82.28 46.04 82.57 46.34Q82.81 46.51 82.93 46.83Q83.06 47.14 83.30 47.31Q83.74 48.19 83.98 48.39Q84.16 48.78 84.06 49.17L83.84 49.95Q83.81 50.24 83.79 50.43Q83.76 50.61 83.74 50.71Q83.72 50.81 83.69 50.90Q83.67 51.00 83.64 51.12Q83.35 52.83 82.76 54.44Q82.79 54.79 82.96 55.15Q83.11 55.44 83.06 56.01Q83.35 56.05 83.62 56.01Q83.89 55.96 84.08 55.91Q85.11 55.49 86.04 54.83Q86.67 54.35 87.35 53.88Q88.06 53.39 88.67 52.93Q88.89 52.76 89.06 52.56Q89.23 52.37 89.45 52.20Q89.94 51.81 90.41 51.56Q90.87 51.32 91.36 51.07Q91.60 50.93 91.75 50.78Q91.89 50.63 92.09 50.44Q92.33 50.20 92.77 49.93Q93.21 49.66 93.60 49.46Q94.29 49.44 94.31 49.68L94.38 50.15Q93.75 50.59 93.19 51.05Q92.63 51.51 92.04 52.00Q91.89 52.10 91.77 52.17Q91.65 52.25 91.41 52.34Q91.21 52.49 91.14 52.61Q91.06 52.73 90.82 52.88Q90.67 53.00 90.53 53.11Q90.38 53.22 90.23 53.34Q89.94 53.56 89.70 53.81Q89.36 54.05 89.06 54.30Q88.77 54.54 88.53 54.79Q88.26 55.05 88.09 55.32Q87.94 55.57 87.60 55.86Q87.35 55.96 87.18 56.10L86.82 56.40Q86.72 56.69 86.67 56.91Q86.65 57.10 86.38 57.37Q85.99 57.71 85.91 57.84Q85.84 57.96 85.69 58.11Q85.60 58.18 85.35 58.28Q85.25 58.30 85.16 58.35Q85.06 58.40 84.96 58.45Q84.74 58.57 84.52 58.79Q84.42 58.89 84.31 58.98Q84.20 59.08 84.08 59.18Q83.89 59.30 83.72 59.40Q83.54 59.50 83.42 59.59Q83.23 59.74 82.71 59.86Q82.20 60.21 81.98 60.18Q81.84 60.16 81.49 60.21Q81.37 60.25 81.27 60.11Q81.18 59.96 81.01 59.96Q80.69 59.67 80.52 59.72Q80.32 59.77 80.18 59.67Q79.69 59.11 79.69 58.84Q79.69 58.69 79.68 58.53Q79.66 58.37 79.64 58.20Q79.54 57.47 79.44 56.71Q79.35 55.96 79.30 55.13Q79.30 54.79 79.37 54.49Q79.47 54.13 79.49 53.86Q79.49 53.74 79.44 53.49Q79.39 53.25 79.39 53.17Q79.44 52.76 79.54 52.44Q79.64 52.15 79.59 51.76Q79.27 52.12 79.03 52.38Q78.78 52.64 78.61 52.81Q78.44 52.98 78.28 53.15Q78.13 53.32 77.98 53.52Q77.22 53.96 76.71 54.37Q76.17 54.81 75.39 55.08Q75.05 55.42 74.72 55.73Q74.39 56.03 74.07 56.30Q73.75 56.57 73.43 56.87Q73.10 57.18 72.75 57.52Q71.95 58.57 71.00 59.08Q70.65 59.18 70.46 59.20Q70.26 59.23 70.07 59.08Q69.04 58.50 68.85 57.57Q68.65 56.64 68.90 55.52Q68.68 55.05 68.96 54.19Q69.24 53.32 69.04 52.93Q69.12 52.56 69.21 52.19Q69.31 51.81 69.43 51.42Q69.56 51.03 69.64 50.65Q69.73 50.27 69.78 49.90Q70.02 49.56 69.85 49.37Q69.68 49.17 69.53 49.02Q68.70 49.51 67.94 50.17Q67.19 50.83 66.41 51.51Q66.21 51.68 66.03 51.84Q65.84 52.00 65.65 52.17Q65.48 52.34 65.28 52.50Q65.09 52.66 64.89 52.83L64.11 53.49Q63.70 53.83 63.43 54.20Q63.11 54.64 62.92 54.79L62.60 55.03Q62.38 55.15 62.21 55.32Q62.11 55.42 61.91 55.57Q61.77 55.69 61.52 55.79L61.08 55.96Q60.79 56.15 60.47 56.47Q60.16 56.79 59.91 57.03Q59.72 57.23 59.47 57.42Q59.20 57.64 59.08 57.81Q58.79 58.23 58.37 58.69Q58.20 58.89 58.02 59.09Q57.84 59.30 57.67 59.52Q57.64 59.74 57.40 59.99L56.93 60.45Q56.84 60.55 56.74 60.66Q56.64 60.77 56.52 60.89Q56.32 61.11 56.05 61.23L55.71 61.30Q55.44 61.35 55.32 61.43Q55.18 61.47 55.02 61.54Q54.86 61.60 54.69 61.67Q54.37 61.82 53.96 61.77L53.37 61.69Q53.15 61.67 52.88 61.47Q52.88 61.08 52.64 60.94Q52.76 60.28 52.95 59.77Q53.15 59.23 53.27 58.64Q53.64 58.13 53.83 57.54Q54.03 56.96 54.35 56.35Q54.57 55.74 54.86 55.08L55.37 53.91Q55.47 53.61 55.55 53.34Q55.64 53.08 55.71 52.83Q55.86 52.32 56.10 51.95Q56.42 51.44 56.45 51.22Q56.98 50.59 56.98 49.90Q57.25 49.61 57.37 49.07Q57.50 48.56 57.67 48.14Q57.76 47.95 57.84 47.80Q57.91 47.66 57.96 47.41Q58.01 47.09 57.98 46.95Q57.96 46.75 58.11 46.48Q58.20 46.36 58.30 46.26Q58.40 46.17 58.50 46.07Q58.59 45.97 58.69 45.87Q58.79 45.78 58.89 45.65Q59.11 45.63 59.23 45.41Q59.35 45.21 59.52 45.12Q60.06 44.95 60.13 44.87Q60.23 44.78 60.25 44.78L60.99 44.41Q61.06 44.36 61.15 44.32Q61.23 44.29 61.33 44.24Q61.43 44.19 61.50 44.17Q61.57 44.14 61.62 44.12Q61.67 44.09 61.74 44.07Q61.82 44.04 61.91 43.99Q62.04 43.87 62.30 43.70Q62.57 43.53 62.70 43.41Q63.18 43.60 63.53 44.02Q63.87 44.43 63.72 45.12Q63.67 45.36 63.57 45.58Q63.48 45.80 63.38 46.00Q63.31 46.17 63.26 46.46Q63.21 46.75 63.13 46.88Q62.79 47.49 62.70 47.78Q62.57 48.14 62.45 48.39Q62.26 48.71 62.11 49.02Q61.96 49.41 61.84 49.66Q61.72 49.90 61.47 50.15Q61.28 50.39 61.18 50.49Q61.01 50.66 60.89 50.88Q60.72 51.10 60.55 51.34Q60.38 51.59 60.21 51.86Q59.89 52.37 59.47 52.83L58.96 53.81Q58.72 54.27 58.45 54.83ZM120.65 57.18Q120.85 56.91 120.95 56.81Q121.07 56.69 121.24 56.59Q121.85 55.30 122.84 54.54Q123.83 53.78 124.95 52.83Q125.20 52.83 125.37 52.66Q125.54 52.49 125.78 52.39Q126.07 52.12 126.34 51.95Q126.56 51.81 126.71 51.56Q127.27 51.29 127.76 50.83Q128.27 50.37 128.76 50Q129.15 49.90 129.59 50.10Q129.79 50.49 129.74 50.93Q129.69 51.37 129.25 51.42Q129.10 51.56 128.93 51.71Q128.76 51.86 128.52 51.90Q128.03 52.00 127.88 52.29Q127.86 52.76 127.76 52.86Q127.66 52.95 127.64 53.03Q127.10 53.93 126.44 54.58Q125.78 55.22 125.20 56.15Q124.93 56.32 124.76 56.69Q123.88 57.18 123.46 57.45Q123.05 57.71 122.71 58.11Q122.41 58.28 122.41 58.40Q122.41 58.50 122.31 58.59Q121.83 59.01 121.75 59.20Q121.68 59.40 121.53 59.52Q121.29 59.69 121.11 59.85Q120.92 60.01 120.80 60.13Q120.51 60.42 120.17 60.55Q119.75 60.89 118.95 61.36Q118.14 61.84 117.29 62.10Q116.43 62.35 115.87 62.11L115.53 61.84Q115.43 61.77 115.19 61.62Q114.87 61.23 114.48 60.96Q114.14 60.72 113.82 60.25Q113.45 59.74 113.35 59.20Q113.26 58.64 112.99 58.11Q112.87 56.84 113.18 56.01Q113.45 55.18 113.77 54.46Q114.09 53.74 114.48 53.13Q115.23 51.95 115.53 50.34Q114.99 49.80 114.92 49.34Q114.89 49.10 114.82 48.78Q114.75 48.46 114.65 48.05Q113.38 48.88 112.30 50.15Q111.23 51.42 110.40 52.73L109.81 53.81Q109.57 54.27 109.23 54.69Q108.98 54.93 108.98 55.00Q108.98 55.08 108.89 55.18Q108.69 55.42 108.57 55.59Q108.45 55.76 108.40 55.86Q108.35 55.96 108.30 56.04Q108.25 56.13 108.20 56.20Q108.06 56.40 107.96 56.49Q107.86 56.59 107.71 56.79Q107.03 57.76 106.47 58.62L105.32 60.35Q105.05 60.77 104.88 61.18Q104.71 61.62 104.39 61.96Q103.91 62.01 103.83 61.82Q103.76 61.62 103.86 61.47Q103.27 61.08 103.20 59.96Q103.13 58.84 103.42 58.15Q103.27 57.71 103.32 57.67Q103.37 57.62 103.37 57.52Q104.00 56.64 104.66 55.76Q105.32 54.88 106.05 54.10Q106.18 53.93 106.30 53.76Q106.42 53.59 106.52 53.42Q106.76 53.05 107.03 52.78Q107.45 52.08 108.03 51.32Q108.62 50.59 108.98 49.80Q109.25 49.54 109.35 49.27Q109.47 48.97 109.77 48.78Q109.94 48.49 110.07 48.21Q110.21 47.92 110.30 47.66Q110.45 47.19 110.84 46.73Q110.94 46.39 111.08 46.19Q111.23 46.00 111.47 45.75Q111.50 45.53 111.74 45.34Q111.99 45.14 112.11 44.92Q112.23 44.58 112.35 44.48Q112.50 44.36 112.50 44.14Q112.74 43.90 112.99 43.63Q113.23 43.36 113.43 42.97Q114.11 42.58 114.38 42.58Q114.65 42.58 114.79 42.33Q114.99 42.33 115.22 42.33Q115.45 42.33 115.72 42.31Q116.28 42.26 116.31 42.68Q116.33 42.77 116.31 42.92Q116.28 42.99 116.26 43.07Q116.24 43.14 116.21 43.21Q116.24 43.65 116.21 43.68Q116.16 43.73 116.16 43.75Q116.11 43.95 116.14 44.09Q116.16 44.21 116.16 44.53Q116.14 44.73 116.11 44.87Q116.09 45.02 116.06 45.14Q116.02 45.39 116.26 45.70Q116.38 45.87 116.55 45.97Q116.72 46.07 116.89 46.29Q117.02 46.41 117.07 46.58Q117.11 46.75 117.24 46.88Q117.33 47.00 117.53 47.12Q117.72 47.24 117.82 47.46Q118.09 47.66 117.99 47.71Q117.92 47.75 118.21 47.90Q118.77 48.61 119.04 49.41Q119.36 50.02 119.58 50.39Q119.82 50.78 119.58 51.17Q119.43 51.32 119.24 51.76Q119.02 51.98 118.85 52.25Q118.75 52.42 118.70 52.61Q118.68 52.78 118.55 52.93Q118.12 53.64 117.65 54.20Q117.19 54.76 116.85 55.42Q116.87 56.81 117.38 57.47Q117.97 58.15 118.12 58.15Q118.43 58.20 118.80 57.96L119.43 57.57Q119.53 57.52 119.62 57.47Q119.70 57.42 119.78 57.37Q119.92 57.28 120.12 57.23Q120.63 57.06 120.61 57.10Q120.58 57.18 120.65 57.18ZM149.76 46.92Q150 46.95 150.07 47.12Q150.15 47.27 150.34 47.27Q150.44 47.73 150.15 47.91Q149.85 48.10 149.95 48.49Q149.51 48.78 148.88 48.85Q148.22 48.93 147.90 49.37Q147.05 49.78 146.12 49.88Q145.65 49.93 145.15 50.01Q144.65 50.10 144.14 50.20Q143.60 50.56 143.48 50.59Q143.31 50.61 143.12 50.73Q142.60 50.54 142.09 50.54Q141.58 50.54 141.02 50.39Q140.75 50.49 140.45 50.49Q140.16 50.49 139.89 50.59Q139.70 51.03 139.70 51.46Q139.70 51.93 139.55 52.34L139.26 52.93L139.18 53.39Q139.14 53.69 139.06 53.86Q138.96 54.00 138.84 54.20Q138.72 54.39 138.72 54.64Q138.38 55.08 138.23 55.54Q138.09 56.08 137.70 56.40Q137.55 56.91 137.23 57.18Q136.91 57.47 136.62 57.86Q136.08 58.59 135.67 59.13Q135.25 59.67 134.57 60.06Q134.33 60.45 133.98 60.60Q133.74 60.84 133.59 61.08L132.62 61.67Q132.03 62.04 131.49 62.16Q130.66 62.35 129.88 62.11Q129.10 61.87 128.42 61.43Q127.95 61.47 127.71 61.25Q127.47 61.06 127.05 60.94Q126.51 60.45 125.88 60.06Q125.22 59.64 124.95 58.98L124.73 57.91Q124.63 57.42 124.51 56.93Q124.41 56.52 124.49 56.01Q124.56 55.57 124.51 55.03Q124.51 54.76 124.51 54.53Q124.51 54.30 124.49 54.13Q124.46 53.76 124.71 53.22Q124.85 52.91 124.95 52.64Q125.05 52.37 125.10 52.17Q125.15 51.98 125.20 51.79Q125.24 51.61 125.29 51.46Q125.37 51.34 125.44 51.21Q125.51 51.07 125.59 50.93Q125.66 50.78 125.74 50.65Q125.83 50.51 125.93 50.39Q126.22 49.95 126.61 49.51Q127.00 49.07 127.39 48.68Q127.66 48.32 127.93 48.05Q128.37 47.61 128.76 47.31Q129.15 47.02 129.64 46.53Q129.74 46.39 129.88 46.29L130.18 46.09Q130.66 45.80 131.08 45.61Q131.49 45.41 132.03 45.17Q132.50 44.95 132.79 44.90Q132.98 44.85 133.19 44.81Q133.40 44.78 133.64 44.73L134.23 44.73Q134.50 44.73 134.72 44.63Q134.57 44.24 135.06 44.09Q135.55 43.95 135.79 43.99Q136.28 43.99 136.57 44.21Q136.87 44.43 137.11 44.73Q137.60 45.07 138.18 45.75Q138.31 45.87 138.43 45.90Q138.55 45.92 138.67 46.04Q138.87 46.34 138.94 46.58Q139.01 46.88 139.26 47.12Q139.40 47.22 139.55 47.36Q139.70 47.51 139.75 47.75Q140.26 47.95 140.67 48.05Q140.89 48.14 141.19 48.10Q141.46 48.05 141.80 48.10Q142.02 48.12 142.24 48.22Q142.43 48.29 142.68 48.29Q143.04 48.27 143.48 48.10Q143.90 47.95 144.43 48.05Q145.17 48.22 145.97 47.90Q146.78 47.56 147.61 47.46Q147.85 47.46 147.95 47.44Q148.05 47.41 148.29 47.41Q148.54 47.22 148.93 47.12Q149.32 47.02 149.76 46.92M135.79 48.39Q135.30 47.95 135.23 47.83Q135.13 47.68 135.06 47.66Q134.84 47.44 134.57 47.41Q134.42 47.39 134.29 47.36Q134.16 47.34 134.03 47.31Q133.25 47.17 132.74 47.49Q132.50 47.66 132.24 47.80Q131.98 47.95 131.74 48.10Q130.96 48.58 130.37 49.32Q130.22 49.56 130.05 49.85Q129.88 50.15 129.79 50.49Q129.59 50.88 129.44 51.20Q129.30 51.51 129.20 51.95Q128.96 52.42 128.91 52.76Q128.88 52.93 128.86 53.06Q128.83 53.20 128.81 53.32Q128.78 53.56 128.74 53.82Q128.69 54.08 128.64 54.35Q128.52 54.96 128.52 55.27Q128.56 55.42 128.66 55.66Q128.76 55.91 128.86 56.01Q128.96 56.25 129.08 56.54Q129.20 56.84 129.30 56.98Q129.57 57.32 129.93 57.42Q130.13 57.47 130.35 57.53Q130.57 57.59 130.81 57.67Q131.35 57.96 131.54 57.91Q131.79 57.86 131.84 57.86Q132.50 57.74 132.96 57.32Q133.37 56.93 133.94 56.64Q134.13 56.35 134.34 56.03Q134.55 55.71 134.79 55.40Q135.03 55.05 135.24 54.72Q135.45 54.39 135.64 54.05Q135.77 53.91 135.89 53.61Q135.94 53.49 135.99 53.38Q136.04 53.27 136.08 53.17Q136.43 52.76 136.40 52.73Q136.38 52.71 136.43 52.59Q136.74 51.86 136.72 51.46Q136.69 51.07 136.72 50.68Q136.60 50.42 136.50 50.12Q136.40 49.83 136.30 49.51Q136.11 48.85 135.79 48.39ZM168.36 46.92Q168.60 46.95 168.68 47.12Q168.75 47.27 168.95 47.27Q169.04 47.73 168.75 47.91Q168.46 48.10 168.55 48.49Q168.12 48.78 167.48 48.85Q166.82 48.93 166.50 49.37Q165.65 49.78 164.72 49.88Q164.26 49.93 163.76 50.01Q163.26 50.10 162.74 50.20Q162.21 50.56 162.08 50.59Q161.91 50.61 161.72 50.73Q161.21 50.54 160.69 50.54Q160.18 50.54 159.62 50.39Q159.35 50.49 159.06 50.49Q158.76 50.49 158.50 50.59Q158.30 51.03 158.30 51.46Q158.30 51.93 158.15 52.34L157.86 52.93L157.79 53.39Q157.74 53.69 157.67 53.86Q157.57 54.00 157.45 54.20Q157.32 54.39 157.32 54.64Q156.98 55.08 156.84 55.54Q156.69 56.08 156.30 56.40Q156.15 56.91 155.83 57.18Q155.52 57.47 155.22 57.86Q154.69 58.59 154.27 59.13Q153.86 59.67 153.17 60.06Q152.93 60.45 152.59 60.60Q152.34 60.84 152.20 61.08L151.22 61.67Q150.63 62.04 150.10 62.16Q149.27 62.35 148.49 62.11Q147.71 61.87 147.02 61.43Q146.56 61.47 146.31 61.25Q146.07 61.06 145.65 60.94Q145.12 60.45 144.48 60.06Q143.82 59.64 143.55 58.98L143.33 57.91Q143.24 57.42 143.12 56.93Q143.02 56.52 143.09 56.01Q143.16 55.57 143.12 55.03Q143.12 54.76 143.12 54.53Q143.12 54.30 143.09 54.13Q143.07 53.76 143.31 53.22Q143.46 52.91 143.55 52.64Q143.65 52.37 143.70 52.17Q143.75 51.98 143.80 51.79Q143.85 51.61 143.90 51.46Q143.97 51.34 144.04 51.21Q144.12 51.07 144.19 50.93Q144.26 50.78 144.35 50.65Q144.43 50.51 144.53 50.39Q144.82 49.95 145.21 49.51Q145.61 49.07 146.00 48.68Q146.26 48.32 146.53 48.05Q146.97 47.61 147.36 47.31Q147.75 47.02 148.24 46.53Q148.34 46.39 148.49 46.29L148.78 46.09Q149.27 45.80 149.68 45.61Q150.10 45.41 150.63 45.17Q151.10 44.95 151.39 44.90Q151.59 44.85 151.79 44.81Q152.00 44.78 152.25 44.73L152.83 44.73Q153.10 44.73 153.32 44.63Q153.17 44.24 153.66 44.09Q154.15 43.95 154.39 43.99Q154.88 43.99 155.18 44.21Q155.47 44.43 155.71 44.73Q156.20 45.07 156.79 45.75Q156.91 45.87 157.03 45.90Q157.15 45.92 157.28 46.04Q157.47 46.34 157.54 46.58Q157.62 46.88 157.86 47.12Q158.01 47.22 158.15 47.36Q158.30 47.51 158.35 47.75Q158.86 47.95 159.28 48.05Q159.50 48.14 159.79 48.10Q160.06 48.05 160.40 48.10Q160.62 48.12 160.84 48.22Q161.04 48.29 161.28 48.29Q161.65 48.27 162.08 48.10Q162.50 47.95 163.04 48.05Q163.77 48.22 164.58 47.90Q165.38 47.56 166.21 47.46Q166.46 47.46 166.55 47.44Q166.65 47.41 166.89 47.41Q167.14 47.22 167.53 47.12Q167.92 47.02 168.36 46.92M154.39 48.39Q153.91 47.95 153.83 47.83Q153.74 47.68 153.66 47.66Q153.44 47.44 153.17 47.41Q153.03 47.39 152.89 47.36Q152.76 47.34 152.64 47.31Q151.86 47.17 151.34 47.49Q151.10 47.66 150.84 47.80Q150.59 47.95 150.34 48.10Q149.56 48.58 148.97 49.32Q148.83 49.56 148.66 49.85Q148.49 50.15 148.39 50.49Q148.19 50.88 148.05 51.20Q147.90 51.51 147.80 51.95Q147.56 52.42 147.51 52.76Q147.49 52.93 147.46 53.06Q147.44 53.20 147.41 53.32Q147.39 53.56 147.34 53.82Q147.29 54.08 147.24 54.35Q147.12 54.96 147.12 55.27Q147.17 55.42 147.27 55.66Q147.36 55.91 147.46 56.01Q147.56 56.25 147.68 56.54Q147.80 56.84 147.90 56.98Q148.17 57.32 148.54 57.42Q148.73 57.47 148.95 57.53Q149.17 57.59 149.41 57.67Q149.95 57.96 150.15 57.91Q150.39 57.86 150.44 57.86Q151.10 57.74 151.56 57.32Q151.98 56.93 152.54 56.64Q152.73 56.35 152.94 56.03Q153.15 55.71 153.39 55.40Q153.64 55.05 153.85 54.72Q154.05 54.39 154.25 54.05Q154.37 53.91 154.49 53.61Q154.54 53.49 154.59 53.38Q154.64 53.27 154.69 53.17Q155.03 52.76 155.00 52.73Q154.98 52.71 155.03 52.59Q155.35 51.86 155.32 51.46Q155.30 51.07 155.32 50.68Q155.20 50.42 155.10 50.12Q155.00 49.83 154.91 49.51Q154.71 48.85 154.39 48.39ZM177.59 34.08Q178.66 34.25 179.46 34.30Q180.25 34.35 181.20 34.18L183.13 33.91Q183.91 33.81 185.01 33.69Q185.30 33.67 185.62 33.69Q185.79 33.72 185.94 33.73Q186.08 33.74 186.23 33.74Q186.87 33.74 187.48 33.69Q188.09 33.64 188.62 33.59Q188.72 33.57 188.81 33.54Q188.89 33.52 188.96 33.50Q189.11 33.45 189.26 33.50Q189.48 33.50 189.70 33.50Q189.92 33.50 190.14 33.47Q190.58 33.45 190.92 33.79Q191.06 34.28 191.02 34.33Q190.94 34.40 190.92 34.47Q190.87 35.11 190.75 35.11Q190.63 35.11 190.63 35.21Q190.23 35.30 189.97 35.38Q189.70 35.45 189.55 35.69Q188.72 35.86 188.01 35.77Q187.30 35.64 186.57 35.99Q186.21 36.16 185.86 36.35Q185.52 36.57 184.96 36.38Q184.47 36.38 183.84 36.43Q183.20 36.47 182.62 36.52Q181.79 36.60 180.75 36.68Q179.71 36.77 179.15 36.79Q178.61 36.82 177.61 36.87Q176.61 36.91 175.83 36.91Q175.44 37.23 175.32 37.74Q175.20 38.23 174.80 38.53Q174.37 39.50 174.17 39.77Q173.95 40.06 173.83 40.53Q173.14 41.41 172.58 42.36Q172.07 43.24 171.29 44.14Q171.19 44.68 170.92 45.09Q170.68 45.48 170.56 46.19Q170.04 46.88 169.78 47.80Q169.65 48.24 169.49 48.71Q169.34 49.17 169.14 49.66Q169.04 50.05 168.92 50.42Q168.80 50.78 168.65 51.17Q168.48 51.61 168.19 52.08Q168.07 52.27 167.93 52.50Q167.80 52.73 167.68 52.98Q167.58 53.08 167.58 53.25Q167.58 53.37 167.53 53.52Q167.46 53.69 167.38 53.85Q167.31 54.00 167.24 54.13Q167.14 54.30 166.99 54.64Q166.92 54.81 166.87 55.15Q166.82 55.49 166.75 55.66Q166.72 55.74 166.70 55.81Q166.67 55.88 166.65 55.93Q166.63 55.98 166.60 56.05Q166.58 56.13 166.55 56.20Q166.41 56.88 166.55 57.13Q166.70 57.37 166.80 57.62Q166.85 57.76 166.89 57.89Q166.94 58.01 166.99 58.13Q167.11 58.35 167.14 58.59Q167.26 58.64 167.38 58.69Q167.50 58.74 167.60 58.79Q167.80 58.89 168.07 58.89Q168.38 58.94 168.70 58.62Q169.04 58.28 169.29 58.25Q169.58 58.15 169.95 58.15Q170.26 58.15 170.51 58.01Q170.65 57.89 170.78 57.76Q170.90 57.64 171.00 57.52Q171.14 57.30 171.53 57.18Q172.31 56.98 172.36 56.86Q172.39 56.76 172.71 56.49Q172.88 56.37 173.03 56.25Q173.19 56.13 173.32 56.03Q173.51 55.86 173.97 55.57Q174.46 55.32 174.54 55.27Q174.61 55.22 174.95 54.93Q175.20 54.81 175.40 54.68Q175.61 54.54 175.78 54.39Q176.05 54.15 176.56 53.86Q177.15 53.61 177.21 53.55Q177.27 53.49 177.29 53.39Q177.32 53.30 177.83 52.98Q178.00 52.61 178.27 52.34Q178.39 52.22 178.54 52.06Q178.69 51.90 178.86 51.71Q179.17 51.34 179.47 51.12Q179.81 50.85 180.03 50.63Q180.13 50.56 180.27 50.42Q180.42 50.27 180.62 50.24Q180.76 50.12 180.87 50.02Q180.98 49.93 181.08 49.83Q181.18 49.73 181.31 49.61Q181.45 49.49 181.64 49.32L181.88 49.07Q182.06 48.90 182.13 48.88Q182.35 48.88 182.45 49.02Q182.57 49.17 182.76 49.17Q182.74 49.49 182.73 49.68Q182.71 49.88 182.71 49.98Q182.71 50.17 182.62 50.34Q182.32 50.81 181.96 50.83Q181.59 50.88 181.40 51.37Q181.25 51.27 181.03 51.32Q180.81 51.37 180.71 51.46Q180.81 51.64 180.81 51.81Q180.81 51.90 180.86 52.15Q179.96 53.05 179.69 53.56Q179.08 54.20 179.05 54.27L179.00 54.35L178.61 54.74Q177.93 55.27 177.59 55.76Q177.27 56.23 176.56 56.64Q176.03 57.03 175.83 57.23Q175.73 57.32 175.59 57.46Q175.44 57.59 175.24 57.76Q175.12 57.89 174.88 58.18Q174.63 58.47 174.46 58.59Q174.15 58.84 173.80 59.03Q173.54 59.18 173.24 59.52Q172.53 59.84 172.19 60.30Q171.88 60.72 171.24 61.13Q170.80 61.43 170.04 61.87Q169.29 62.30 168.75 62.50Q168.68 62.52 168.60 62.55Q168.53 62.57 168.48 62.60Q168.43 62.62 168.36 62.65Q168.29 62.67 168.21 62.70Q167.82 62.45 167.46 62.21Q167.09 61.96 166.85 61.52Q166.38 61.18 166.14 61.04Q165.84 60.86 165.63 60.64Q165.38 60.23 165.11 59.81Q164.84 59.40 164.53 58.98Q163.89 58.13 163.57 57.13Q163.50 57.01 163.45 56.71L163.38 56.25Q163.33 56.05 163.28 55.88Q163.23 55.71 163.18 55.57Q163.09 55.32 163.13 54.83Q163.13 54.49 163.23 54.20Q163.28 54.03 163.33 53.85Q163.38 53.66 163.43 53.47Q163.53 53.15 163.65 52.84Q163.77 52.54 163.89 52.25Q164.18 51.59 164.31 50.98Q164.60 49.95 164.94 49.02Q165.01 48.85 165.06 48.56Q165.09 48.34 165.33 48.24Q165.53 47.27 165.97 46.36Q166.41 45.46 166.85 44.63Q167.11 44.12 167.36 43.59Q167.60 43.07 167.85 42.53Q168.09 41.99 168.33 41.47Q168.58 40.94 168.85 40.43Q168.87 39.89 169.24 39.45Q169.26 38.96 169.63 38.40Q170.00 37.84 170.12 37.35Q169.58 37.21 168.92 37.33Q168.26 37.45 167.77 37.55Q166.89 37.57 165.92 37.55Q165.75 37.52 165.59 37.49Q165.43 37.45 165.26 37.43Q164.94 37.35 164.65 37.35Q164.21 37.38 163.99 37.28Q163.75 37.16 163.53 37.26Q162.84 36.67 162.12 36.23Q161.40 35.79 161.18 35.11Q161.18 34.96 161.33 34.86Q161.52 34.72 161.57 34.67Q161.99 34.55 162.45 34.59Q162.92 34.62 163.23 34.42Q163.94 34.52 164.67 34.33Q165.33 34.13 166.06 34.18Q166.16 34.18 166.36 34.23Q166.55 34.28 166.65 34.28Q166.89 34.30 167.07 34.28Q167.16 34.25 167.26 34.23Q167.36 34.20 167.48 34.18Q167.77 34.13 168.12 34.18Q168.46 34.23 168.80 34.18Q169.51 34.13 170.34 34.30Q171.24 34.47 171.92 34.23Q172.05 33.89 172.18 33.53Q172.31 33.18 172.49 32.84Q172.83 32.13 173.00 31.45Q173.19 31.15 173.39 30.79Q173.58 30.42 173.68 30.08L174.15 29.30Q174.24 29.15 174.34 29.00Q174.44 28.86 174.56 28.71Q174.90 28.00 175.07 27.37Q175.17 27.03 175.28 26.67Q175.39 26.32 175.54 25.93Q175.85 25.59 176.17 25.17Q176.49 24.76 176.81 24.27Q177.17 24.32 177.37 24.07Q177.59 23.83 178.03 24.12Q178.03 24.27 178.15 24.39Q178.27 24.51 178.17 24.76Q178.66 25.24 178.81 25.63Q178.91 26.03 178.74 26.54Q178.56 27.05 178.81 27.49Q178.91 27.71 178.86 27.95Q178.81 28.22 178.91 28.37Q179.03 28.64 179.17 28.86Q179.35 29.10 179.35 29.49Q179.35 29.64 179.27 29.86Q179.20 30.08 179.10 30.32Q178.93 31.05 178.81 31.35Q178.76 31.49 178.71 31.65Q178.66 31.81 178.61 31.98Q178.27 32.40 178.27 32.50Q178.27 32.57 178.22 32.71Q178.15 32.86 178.08 33.04Q178.00 33.23 177.91 33.42Q177.81 33.62 177.73 33.79Q177.66 33.96 177.59 34.08Z"/></g></g></svg>