<svg xmlns="http://www.w3.org/2000/svg" viewBox="0 17.5 124.79000091552734 30.950000762939453" data-asc="0.9" width="124.79000091552734" height="30.950000762939453"><defs/><g fill="#000000"><g transform="translate(0, 0)"><path d="M5.85 46.85Q4.30 46.85 3.20 45.98Q2.10 45.10 1.40 43.70Q0.70 42.30 0.35 40.77Q0 39.25 0 38Q0 37.80 0.05 37.48Q0.10 37.15 0.35 37.15Q0.45 37.15 0.45 37.30Q0.45 37.70 0.55 38.17Q0.65 38.65 0.75 39.10Q1 40.25 1.57 41.40Q2.15 42.55 3.10 43.30Q4.05 44.05 5.40 44.05Q6.60 44.05 7.55 43.55Q8.50 43.05 9.25 42.15Q10.85 40.20 12.08 37.38Q13.30 34.55 14.30 31.55Q15.30 28.55 16.05 26.15Q16.10 26 16.30 25.38Q16.50 24.75 16.70 24.13Q16.90 23.50 16.90 23.40Q16.95 22.50 17 21.67Q17.05 20.85 17.75 20.20Q15.95 20.80 14.13 21.38Q12.30 21.95 10.55 22.65Q9.45 23.10 8.60 23.90Q7.75 24.70 7.75 26Q7.75 27 8.23 27.95Q8.70 28.90 9.15 29.80Q9.60 30.70 9.60 31.70Q9.60 32.70 8.88 33.55Q8.15 34.40 7.10 34.40Q6.90 34.40 6.50 34.30Q6.10 34.20 6.10 34Q6.10 33.85 6.25 33.85Q6.30 33.85 6.40 33.92Q6.50 34 6.65 34Q7.25 34 7.63 33.42Q8.00 32.85 8.20 32.15Q8.40 31.45 8.40 31Q8.40 29.85 7.88 28.82Q7.35 27.80 6.83 26.80Q6.30 25.80 6.30 24.75Q6.30 23.40 7.30 22.60Q8.30 21.80 9.90 21.32Q11.50 20.85 13.25 20.55Q15.00 20.25 16.58 19.92Q18.15 19.60 19.05 19.05Q19.40 18.85 20.00 18.17Q20.60 17.50 20.80 17.50Q20.95 17.50 20.95 17.80Q20.95 18.20 20.70 18.88Q20.45 19.55 20.15 19.85Q19.55 20.50 19.20 21.25Q18.85 22 18.50 22.85Q18 24.10 17.55 25.40Q17.10 26.70 16.65 28Q15.50 31.15 14.43 34.33Q13.35 37.50 12.00 40.60Q11.50 41.80 10.63 43.25Q9.75 44.70 8.55 45.77Q7.35 46.85 5.85 46.85ZM36.35 45.45Q34.95 45.45 34.95 43.30Q34.95 41.95 35.35 40.73Q35.75 39.50 36.10 38.25Q35.30 39.10 34.58 39.90Q33.85 40.70 33.00 41.50Q32.20 42.25 31.35 42.98Q30.50 43.70 29.65 44.25Q28.10 45.25 27.30 45.25Q26.50 45.25 26.50 44.30Q26.50 43.20 27.35 41.35Q27.85 40.25 28.73 38.95Q29.60 37.65 30.55 36.40Q31.45 35.30 32.68 34.15Q33.90 33 35.35 32.20Q36.80 31.40 38.25 31.40Q39.40 31.40 40.18 31.92Q40.95 32.45 40.95 33.60Q40.95 34.80 40.50 35.05Q40.35 35.20 40.30 35.15Q40.25 35.10 40.25 35.10Q40.20 34.60 39.80 34.08Q39.40 33.55 38.80 33.35Q38.15 33.15 37.35 33.15Q35.50 33.15 33.88 34.23Q32.25 35.30 31.10 36.75Q30.15 38 29.58 39.33Q29.00 40.65 29.00 41.65Q29.00 43.15 29.80 43.15Q30.30 43.15 30.90 42.70Q31.50 42.25 31.90 41.90Q33.35 40.60 34.63 39.02Q35.90 37.45 36.40 36.80Q36.50 36.70 36.98 36.48Q37.45 36.25 38.00 36.10L39.05 35.85Q39.35 35.85 39.35 35.90Q39.05 36.30 38.53 37.55Q38.00 38.80 37.60 40.23Q37.20 41.65 37.20 42.65Q37.20 43.45 37.50 43.70Q37.65 43.85 37.90 43.85Q38.30 43.85 38.75 43.58Q39.20 43.30 39.70 42.95Q41.45 41.65 43.03 39.75Q44.60 37.85 45.70 36.35Q45.70 36.35 45.80 36.45Q45.90 36.70 45.80 36.85Q45.15 37.70 44.45 38.63Q43.75 39.55 43.05 40.45Q42.30 41.30 41.53 42.13Q40.75 42.95 39.90 43.65Q38.90 44.45 37.98 44.95Q37.05 45.45 36.35 45.45ZM58.15 48.45Q56.20 48.45 56.20 45.75Q56.20 44.85 56.40 43.63Q56.60 42.40 57.05 40.80Q57.20 40.15 57.68 38.77Q58.15 37.40 58.50 36.45Q57.45 37.25 56.10 38.48Q54.75 39.70 53.58 40.90Q52.40 42.10 51.80 42.80Q51.40 43.35 51.40 43.15L50.85 43.55Q50.50 43.75 50.23 43.75Q49.95 43.75 49.95 43.50Q49.95 43.10 50.13 42.20Q50.30 41.30 50.55 40.15Q50.80 39 51.13 37.98Q51.45 36.95 51.75 36.35Q49.55 38.10 47.83 39.95Q46.10 41.80 45.40 44.20Q45.35 44.40 45.03 44.52Q44.70 44.65 44.30 44.75Q43.95 44.80 43.55 44.92Q43.15 45.05 42.80 45.20Q42.80 45.10 42.90 44.90Q43.00 44.70 43.05 44.60Q43.20 44.30 43.38 43.77Q43.55 43.25 43.90 42.60Q44.35 41.75 44.78 40.70Q45.20 39.65 45.50 38.88Q45.80 38.10 45.80 38.10L46.40 36.75Q46.50 36.40 46.63 36.10Q46.75 35.80 46.80 35.50Q46.85 35.30 46.85 35Q46.85 34.50 46.63 34.20Q46.40 33.90 45.70 33.90Q45.15 33.90 44.53 34.15Q43.90 34.40 43.35 34.65Q43.40 34.55 43.48 34.35Q43.55 34.15 43.60 34.10Q43.85 34 44.88 33.60Q45.90 33.20 46.80 32.85Q47.20 32.70 47.63 32.48Q48.05 32.25 48.40 32.05Q48.50 31.95 48.85 31.75Q49.20 31.55 49.30 31.55L49.40 31.55Q49.85 31.55 49.85 32.25Q49.75 33 49.30 34.20Q48.90 35.30 48.38 36.35Q47.85 37.40 47.75 37.65L46.35 40.85Q48.45 38.70 50.25 36.73Q52.05 34.75 53.65 32.85Q54.60 31.70 56.00 31.70Q56.25 31.70 56.58 31.73Q56.90 31.75 57.10 31.85Q57.35 31.95 57.23 32.08Q57.10 32.20 56.95 32.25Q56.15 32.45 55.30 33.60Q54.45 34.75 53.73 36.33Q53.00 37.90 52.55 39.42Q52.10 40.95 52.00 41.85Q52.00 41.90 51.98 41.98Q51.95 42.05 51.95 42.15Q52.75 41.15 53.55 40.27Q54.35 39.40 55.15 38.55Q56.05 37.60 57 36.73Q57.95 35.85 58.90 34.90Q59.15 34.60 59.48 34.48Q59.80 34.35 60.15 34.30Q60.60 34.20 61.00 34.13Q61.40 34.05 61.75 33.85Q62.10 33.60 62.23 33.65Q62.35 33.70 62.35 33.75L62.35 33.85Q62.35 34.15 61.95 34.50Q61.35 35.05 60.70 36.23Q60.05 37.40 59.53 38.77Q59 40.15 58.65 41.30Q58 43.55 58 45.05Q58 47.10 59.40 47.10Q60.15 47.10 61.03 46.25Q61.90 45.40 62.40 44.90Q62.45 44.90 62.48 44.92Q62.50 44.95 62.45 44.95Q62.30 45.60 60.85 47Q60.15 47.70 59.35 48.08Q58.55 48.45 58.15 48.45ZM79.05 45.10Q78.25 45 77.90 44.45Q77.55 43.90 77.55 43.15Q77.55 42.10 77.98 40.83Q78.40 39.55 78.93 38.45Q79.45 37.35 79.75 36.80L80.60 35.40Q79.95 35.65 79.45 35.65Q78.25 35.65 77.70 34.45Q77.50 34.70 77.25 35.10Q77.00 35.50 76.90 35.70Q76.15 36.75 75.10 38.13Q74.05 39.50 73.00 40.73Q71.95 41.95 71.10 42.65L71.05 42.65Q71.00 42.65 70.95 42.50Q70.90 42.35 71.00 42.25Q71.70 41.55 72.40 40.73Q73.10 39.90 73.70 39.10Q74.25 38.40 74.95 37.40Q75.65 36.40 76.25 35.38Q76.85 34.35 77.10 33.60Q77.05 33.20 77.15 32.33Q77.25 31.45 78.00 30Q78.30 29.35 79.05 29.35Q79.55 29.35 80.03 29.63Q80.50 29.90 80.65 30.30Q79.75 31.05 79.10 31.90Q78.85 32.25 78.55 32.83Q78.25 33.40 78.25 33.95Q78.25 34.30 78.45 34.58Q78.65 34.85 79.25 34.85Q80.05 34.85 80.88 34.45Q81.70 34.05 82.40 33.80Q82.75 33.70 83.05 33.60Q83.35 33.50 83.60 33.50Q84.30 33.50 84.25 34.25Q83.15 35.35 82.25 36.67Q81.35 38 80.65 39.45Q80.50 39.80 80.20 40.52Q79.90 41.25 79.68 42.02Q79.45 42.80 79.45 43.40Q79.45 44.35 80.10 44.35Q80.35 44.35 80.73 44.23Q81.10 44.10 81.60 43.75Q82.75 42.95 83.95 41.67Q85.15 40.40 86.18 39.08Q87.20 37.75 87.85 36.80Q87.95 36.70 88.05 36.70Q88.15 36.70 88.23 36.90Q88.30 37.10 88.10 37.35Q86.55 39.55 85.00 41.27Q83.45 43 82.00 44.05Q81.15 44.70 80.38 44.92Q79.60 45.15 79.05 45.10ZM89.05 45.45Q87.85 45.45 87.03 44.55Q86.20 43.65 86.20 41.75Q86.20 40.05 86.95 38.35Q87.70 36.65 88.98 35.27Q90.25 33.90 91.80 33.20Q92.20 33.05 92.55 32.95Q92.90 32.85 93.25 32.85Q94.00 32.85 94.55 33.25Q95.10 33.65 95.10 34.50Q95.10 34.70 95.08 34.85Q95.05 35 95.00 35.20Q94.95 35.40 94.73 35.45Q94.50 35.50 94.50 35.30Q94.60 34.45 94.18 33.98Q93.75 33.50 93.10 33.50Q92.65 33.50 92.25 33.70Q91.00 34.30 90.08 35.52Q89.15 36.75 88.68 38.20Q88.20 39.65 88.20 41Q88.25 43.90 90.15 43.90Q91.20 43.90 92.35 43.05Q93.50 42.20 94.35 40.70Q95.20 39.20 95.70 37.48Q96.20 35.75 96.20 34.35Q96.20 33.50 96.00 32.80Q95.80 32.10 95.30 31.75Q95.05 31.55 94.50 31.55Q93.65 31.55 93.20 31.90Q92.90 32.10 92.85 32.10Q92.65 32.10 92.65 31.85Q92.65 31.65 92.85 31.35Q93.15 30.85 93.80 30.60Q94.45 30.35 95.15 30.35Q95.95 30.35 96.55 30.70Q97.85 31.40 97.85 33.65Q97.85 35.25 97.18 37.25Q96.50 39.25 95.33 41.08Q94.15 42.90 92.65 44.05Q90.85 45.45 89.05 45.45ZM102.55 45.45Q101.35 45.45 100.53 44.55Q99.70 43.65 99.70 41.75Q99.70 40.05 100.45 38.35Q101.20 36.65 102.48 35.27Q103.75 33.90 105.30 33.20Q105.70 33.05 106.05 32.95Q106.40 32.85 106.75 32.85Q107.50 32.85 108.05 33.25Q108.60 33.65 108.60 34.50Q108.60 34.70 108.58 34.85Q108.55 35 108.50 35.20Q108.45 35.40 108.23 35.45Q108.00 35.50 108.00 35.30Q108.10 34.45 107.68 33.98Q107.25 33.50 106.60 33.50Q106.15 33.50 105.75 33.70Q104.50 34.30 103.58 35.52Q102.65 36.75 102.18 38.20Q101.70 39.65 101.70 41Q101.75 43.90 103.65 43.90Q104.70 43.90 105.85 43.05Q107.00 42.20 107.85 40.70Q108.70 39.20 109.20 37.48Q109.70 35.75 109.70 34.35Q109.70 33.50 109.50 32.80Q109.30 32.10 108.80 31.75Q108.55 31.55 108.00 31.55Q107.15 31.55 106.70 31.90Q106.40 32.10 106.35 32.10Q106.15 32.10 106.15 31.85Q106.15 31.65 106.35 31.35Q106.65 30.85 107.30 30.60Q107.95 30.35 108.65 30.35Q109.45 30.35 110.05 30.70Q111.35 31.40 111.35 33.65Q111.35 35.25 110.68 37.25Q110.00 39.25 108.83 41.08Q107.65 42.90 106.15 44.05Q104.35 45.45 102.55 45.45ZM115.70 45.05Q114.35 45.05 113.80 44.40Q113.25 43.75 113.25 42.70Q113.25 42.15 113.38 41.55Q113.50 40.95 113.70 40.30Q113.95 39.40 114.33 38.52Q114.70 37.65 115.15 36.80L117.00 33.25Q117.05 33.15 117.13 33.05Q117.20 32.95 117.25 32.85Q116.95 32.90 116.65 33.02Q116.35 33.15 116.10 33.25Q115.75 33.40 115.38 33.52Q115.00 33.65 114.75 33.75Q114.60 33.80 114.35 33.80Q114.00 33.80 114.00 33.55Q114.00 33.15 114.43 32.70Q114.85 32.25 115.20 32.20Q115.75 32.10 116.48 31.90Q117.20 31.70 117.90 31.55Q118.60 30.25 119.18 28.90Q119.75 27.55 120.05 26.15Q120.15 25.90 120.15 25.67Q120.15 25.45 120.15 25.25Q120.15 24.60 119.88 24.38Q119.60 24.15 119.20 24.15Q118.85 24.15 118.35 24.30Q117.85 24.45 117.45 24.70L117.50 24.60Q117.50 24.25 117.65 24.25L120.25 23.20L121.80 22.45Q122.20 22.25 122.50 22.10Q122.80 21.95 122.85 21.95L122.90 21.95Q123.40 21.95 123.40 22.65Q123.40 23.15 123.10 23.90Q122.35 25.75 121.38 27.60Q120.40 29.45 119.40 31.30Q120.20 31.20 120.88 31.20Q121.55 31.20 122.20 31.25Q122.90 31.30 123.23 31.73Q123.55 32.15 123.55 32.60Q123.55 32.80 123.45 33.10Q123.40 33.30 123.30 33.30Q123.00 33.30 123.10 32.90Q123.35 32.30 122.95 32.05Q122.55 31.80 121.85 31.80Q121.65 31.80 121.40 31.82Q121.15 31.85 120.90 31.90Q120.35 31.95 119.80 32.10Q119.25 32.25 118.85 32.35L117.70 34.55Q117.50 34.90 117.08 35.83Q116.65 36.75 116.18 37.95Q115.70 39.15 115.38 40.33Q115.05 41.50 115.05 42.40Q115.05 43.40 115.65 43.80Q116.00 44 116.40 44Q117.35 44 118.40 43.23Q119.45 42.45 120.35 41.48Q121.25 40.50 121.70 40Q121.80 39.90 122.40 39.20Q123.00 38.50 123.68 37.67Q124.35 36.85 124.65 36.40Q124.65 36.40 124.75 36.50Q124.85 36.70 124.70 36.90Q124.10 37.70 123.43 38.58Q122.75 39.45 122.05 40.30Q121.35 41.20 120.33 42.33Q119.30 43.45 118.13 44.25Q116.95 45.05 115.70 45.05Z"/></g></g></svg>